Coordinates
version=1
nRows=19
nColumns=33
inDegrees=yes

Units are S.I. units (second, meters, Newtons, ...)
Angles are in degrees.

endheader
time	ground_thorax_rot_x	ground_thorax_rot_y	ground_thorax_rot_z	ground_thorax_tx	ground_thorax_ty	ground_thorax_tz	clav_prot_r	clav_elev_r	scapula_abduction_r	scapula_elevation_r	scapula_upward_rot_r	scapula_winging_r	shoulder_elv_r	plane_of_elev_r	axial_rot_r	elbow_flexion_r	pro_sup_r	wrist_flex_r	wrist_dev_r	clav_prot_l	clav_elev_l	scapula_abduction_l	scapula_elevation_l	scapula_upward_rot_l	scapula_winging_l	shoulder_elv_l	plane_of_elev_l	axial_rot_l	elbow_flexion_l	pro_sup_l	wrist_flex_l	wrist_dev_l
      5.54000000	    -38.44624458	    -11.70586881	     17.63772541	   -248.61946916	    832.43413052	     11.39050659	      8.61982261	    -45.00000000	     37.80123306	    -45.00000000	    -45.00000000	   3135.39018061	   -465.41791448	    148.97894708	   -112.34844342	   1103.17050022	    120.70682170	     14.68303077	      3.38868666	     14.23887209	     37.66241947	    -34.97927657	    -45.00000000	    -45.00000000	  -2073.26046893	    984.19422117	    135.49372096	   -167.63221046	   2167.61770215	     26.95314017	      6.86742436	    -22.70757497
      5.55000000	    -38.33909557	    -11.78555370	     17.79818019	   -248.80138888	    831.47447640	     11.11306106	      8.52017804	    -45.00000000	     37.79175670	    -45.00000000	    -45.00000000	   3135.37840547	   -465.50728743	    149.04468482	   -111.68772140	   1103.25938526	    120.72273477	     14.87692903	      3.14348078	     14.13715111	     37.54803891	    -34.70352999	    -45.00000000	    -45.00000000	  -2073.51168383	    984.23956544	    135.60707059	   -167.62401548	   2167.62632281	     27.06936448	      6.81197703	    -22.85150287
      5.56000000	    -38.26196692	    -11.86513932	     18.00591045	   -248.73449689	    830.50558473	     10.85336450	      8.59731173	    -45.00000000	     37.74604342	    -45.00000000	    -45.00000000	   3135.36692157	   -465.65039585	    149.16463133	   -111.29061581	   1103.24505440	    120.87773461	     14.66715840	      3.36533083	     14.20101148	     37.51633300	    -34.72109512	    -45.00000000	    -45.00000000	  -2073.42802043	    984.09583041	    135.55729173	   -167.62672205	   2167.56183362	     27.27684121	      6.69501246	    -22.80015754
      5.57000000	    -38.18350590	    -11.91256149	     18.15519452	   -248.45785914	    829.55449326	     10.61647242	      8.60715472	    -45.00000000	     37.71349561	    -45.00000000	    -45.00000000	   3135.39851803	   -465.72516415	    149.22727620	   -110.86391828	   1103.26115634	    121.13641799	     14.65678964	      3.38256689	     14.18933081	     37.55952029	    -34.62476338	    -45.00000000	    -45.00000000	  -2073.62467349	    984.10012149	    135.63747917	   -167.68595166	   2167.61539288	     27.54900959	      6.59421154	    -22.89411472
      5.58000000	    -38.13350248	    -12.03207509	     18.25768173	   -248.01963070	    828.64381711	     10.40275744	      8.63079613	    -45.00000000	     37.70985297	    -45.00000000	    -45.00000000	   3135.39170053	   -465.82428834	    149.29953986	   -110.54400000	   1103.29839867	    121.50013024	     14.52055730	      3.51519617	     14.22238248	     37.50768325	    -34.63192688	    -45.00000000	    -45.00000000	  -2073.58675280	    983.98025205	    135.57832176	   -167.71435721	   2167.59113282	     27.88031599	      6.42666619	    -22.89493652
      5.59000000	    -38.11572373	    -12.13645149	     18.34524428	   -247.47843923	    827.80179575	     10.20949091	      8.64872218	    -45.00000000	     37.68994500	    -45.00000000	    -45.00000000	   3135.42041197	   -465.86802818	    149.31611589	   -110.21764154	   1103.36359403	    121.94396515	     14.45055971	      3.58851996	     14.24795934	     37.53878819	    -34.59606053	    -45.00000000	    -45.00000000	  -2073.70251929	    983.99522708	    135.62003568	   -167.71332418	   2167.65872726	     28.26065114	      6.26392506	    -22.96037909
      5.60000000	    -38.10876592	    -12.27923282	     18.43980374	   -246.89305683	    827.04704572	     10.02809413	      8.65280818	    -45.00000000	     37.71584685	    -45.00000000	    -45.00000000	   3135.44123268	   -465.90772383	    149.35111344	   -109.97148104	   1103.41010335	    122.43171849	     14.34651420	      3.69512996	     14.26946920	     37.51119783	    -34.62765507	    -45.00000000	    -45.00000000	  -2073.68708522	    983.96168747	    135.59194668	   -167.69689649	   2167.68308810	     28.67607703	      6.07160921	    -22.99143316
      5.61000000	    -38.12905956	    -12.36183132	     18.46658027	   -246.31563457	    826.39425040	      9.84724733	      8.65908486	    -45.00000000	     37.68520222	    -45.00000000	    -45.00000000	   3135.46478947	   -465.95462467	    149.36777856	   -109.75635591	   1103.45326742	    122.95912197	     14.27432293	      3.77448759	     14.28339515	     37.55694041	    -34.63617517	    -45.00000000	    -45.00000000	  -2073.76945465	    983.97436988	    135.59438572	   -167.69534231	   2167.74633101	     29.13175024	      5.88921895	    -23.03939547
      5.62000000	    -38.13456425	    -12.48104945	     18.55240838	   -245.78929501	    825.85934426	      9.65663860	      8.64851942	    -45.00000000	     37.72744058	    -45.00000000	    -45.00000000	   3135.48196045	   -465.97866509	    149.46149840	   -109.59274132	   1103.42698271	    123.48487822	     14.20664545	      3.85837648	     14.30677951	     37.53182528	    -34.69888871	    -45.00000000	    -45.00000000	  -2073.79820075	    983.95424048	    135.56568138	   -167.68801245	   2167.71570455	     29.58088335	      5.69649070	    -23.04388729
      5.63000000	    -38.22939821	    -12.49580868	     18.39036470	   -245.33684593	    825.45108297	      9.44695772	      8.67043580	    -45.00000000	     37.70210903	    -45.00000000	    -45.00000000	   3135.50174259	   -466.01333846	    149.37428040	   -109.43986118	   1103.58633057	    124.01053846	     14.14210413	      3.88684576	     14.30404062	     37.60471763	    -34.69536282	    -45.00000000	    -45.00000000	  -2073.86546943	    984.00075289	    135.54548543	   -167.71366605	   2167.78170818	     30.01069246	      5.54963339	    -23.07831625
      5.64000000	    -38.25638303	    -12.69308662	     18.51607913	   -244.96362867	    825.17491396	      9.21318324	      8.62209772	    -45.00000000	     37.73605905	    -45.00000000	    -45.00000000	   3135.52574162	   -466.04117041	    149.51029327	   -109.36979864	   1103.56443376	    124.59817809	     14.07545754	      3.94973493	     14.34066843	     37.54422895	    -34.76826120	    -45.00000000	    -45.00000000	  -2073.76615857	    983.91527844	    135.54037945	   -167.67260359	   2167.79950241	     30.39645226	      5.37770182	    -23.05576578
      5.65000000	    -38.38764387	    -12.45266951	     18.10195920	   -244.65910430	    825.02929892	      8.95457913	      8.70991031	    -45.00000000	     37.71855266	    -45.00000000	    -45.00000000	   3135.48488464	   -466.01085602	    149.28232426	   -109.21532831	   1103.87097347	    125.18973981	     14.02910833	      3.91234318	     14.32239683	     37.68193178	    -34.75772981	    -45.00000000	    -45.00000000	  -2073.93480621	    984.13932203	    135.43083600	   -167.77736459	   2167.96617112	     30.71918028	      5.30994248	    -23.12299478
      5.66000000	    -38.41289768	    -12.72489983	     18.22919376	   -244.39900169	    825.00357980	      8.67225173	      8.62695893	    -45.00000000	     37.75983529	    -45.00000000	    -45.00000000	   3135.53158941	   -465.98109492	    149.40780058	   -109.15971002	   1103.86647508	    126.02145187	     13.96294415	      3.96383746	     14.36147926	     37.59383133	    -34.83339994	    -45.00000000	    -45.00000000	  -2073.75061891	    984.02558489	    135.47054836	   -167.75071561	   2167.92202063	     31.00332273	      5.19160665	    -23.07324368
      5.67000000	    -38.52605490	    -12.65989937	     17.99594407	   -244.15828870	    825.08123946	      8.37251429	      8.69776378	    -45.00000000	     37.79617425	    -45.00000000	    -45.00000000	   3135.57228829	   -466.11377658	    149.38525840	   -109.03026396	   1103.89720954	    126.76423563	     13.93378770	      3.97753330	     14.34929066	     37.68872377	    -34.90772561	    -45.00000000	    -45.00000000	  -2073.82508560	    984.10094875	    135.55065679	   -167.80420515	   2168.11394939	     31.12892404	      5.15721979	    -23.12318158
      5.68000000	    -38.48774234	    -12.84669282	     18.08291155	   -243.91169431	    825.23638676	      8.06489940	      8.66486609	    -45.00000000	     37.79280293	    -45.00000000	    -45.00000000	   3135.49732091	   -465.90842201	    149.44069223	   -108.97463606	   1104.13977608	    127.60572247	     13.85423456	      3.98441053	     14.41771282	     37.57877111	    -34.89930126	    -45.00000000	    -45.00000000	  -2073.66998796	    984.01918105	    135.40790048	   -167.87838767	   2167.99532056	     31.17742323	      5.13422151	    -23.06996058
      5.69000000	    -38.58165240	    -12.77091034	     17.83489791	   -243.63435671	    825.44295018	      7.75427422	      8.75176588	    -45.00000000	     37.76231695	    -45.00000000	    -45.00000000	   3135.56292400	   -466.00697835	    149.29367198	   -108.77835457	   1104.08070684	    128.63189594	     13.84373715	      4.01501020	     14.34880143	     37.71533088	    -34.96985959	    -45.00000000	    -45.00000000	  -2073.83517688	    984.15648032	    135.55421758	   -167.98567424	   2168.17528644	     31.10485871	      5.16034160	    -23.12827345
      5.70000000	    -38.60912560	    -12.92714189	     17.79041555	   -243.31210380	    825.67238664	      7.45330509	      8.72470170	    -45.00000000	     37.80986892	    -45.00000000	    -45.00000000	   3135.59771180	   -465.96755649	    149.38318197	   -108.59245220	   1104.18131023	    129.75410885	     13.79253136	      4.04421466	     14.43821634	     37.62737276	    -34.99956728	    -45.00000000	    -45.00000000	  -2073.65831679	    984.08040672	    135.49484295	   -168.09213723	   2168.15182173	     30.95724515	      5.19587802	    -23.11307352
      5.71000000	    -38.55799881	    -13.06991711	     17.75206610	   -242.93283457	    825.90384228	      7.17031394	      8.86564551	    -45.00000000	     37.99067169	    -45.00000000	    -45.00000000	   3135.57446562	   -465.98757226	    149.33669531	   -108.32713522	   1104.27792584	    130.94730888	     13.75232240	      4.06738153	     14.22297129	     37.64321637	    -34.76245702	    -45.00000000	    -45.00000000	  -2073.91364851	    984.33315601	    135.54726492	   -168.15894366	   2168.25334505	     30.71345527	      5.22898415	    -23.12244516
      5.72000000	    -38.60605814	    -13.07270769	     17.62664802	   -242.49129121	    826.12095803	      6.91532708	      8.91172823	    -45.00000000	     38.04589820	    -45.00000000	    -45.00000000	   3135.62869595	   -465.98197252	    149.38016782	   -108.07066186	   1104.45164137	    132.17228874	     13.68292506	      4.09515670	     14.31929003	     37.59446718	    -34.98335909	    -45.00000000	    -45.00000000	  -2073.72760703	    984.20679927	    135.45514658	   -168.24954792	   2168.28474403	     30.45120575	      5.32555566	    -23.14729748
